<svg xmlns="http://www.w3.org/2000/svg" width="13" height="13" viewBox="0 0 13 13">
    <rect x="1" y="1" width="1" height="1" fill="rgb(0,191,255)"/>
    <rect x="2" y="1" width="1" height="1" fill="rgb(2,197,240)"/>
    <rect x="3" y="1" width="1" height="1" fill="rgb(1,204,246)"/>
    <rect x="4" y="1" width="1" height="1" fill="rgb(0,203,245)"/>
    <rect x="5" y="1" width="1" height="1" fill="rgb(0,204,245)"/>
    <rect x="6" y="1" width="1" height="1" fill="rgb(0,207,247)"/>
    <rect x="7" y="1" width="1" height="1" fill="rgb(0,208,249)"/>
    <rect x="8" y="1" width="1" height="1" fill="rgb(0,211,250)"/>
    <rect x="9" y="1" width="1" height="1" fill="rgb(1,215,252)"/>
    <rect x="10" y="1" width="1" height="1" fill="rgb(2,210,247)"/>
    <rect x="11" y="1" width="1" height="1" fill="rgb(0,153,204)"/>
    <rect x="1" y="2" width="1" height="1" fill="rgb(2,188,231)"/>
    <rect x="2" y="2" width="1" height="1" fill="rgb(1,200,249)"/>
    <rect x="3" y="2" width="1" height="1" fill="rgb(0,196,246)"/>
    <rect x="4" y="2" width="1" height="1" fill="rgb(17,200,246)"/>
    <rect x="5" y="2" width="1" height="1" fill="rgb(52,208,246)"/>
    <rect x="6" y="2" width="1" height="1" fill="rgb(46,209,248)"/>
    <rect x="7" y="2" width="1" height="1" fill="rgb(52,212,250)"/>
    <rect x="8" y="2" width="1" height="1" fill="rgb(17,211,253)"/>
    <rect x="9" y="2" width="1" height="1" fill="rgb(0,213,255)"/>
    <rect x="10" y="2" width="1" height="1" fill="rgb(1,221,255)"/>
    <rect x="11" y="2" width="1" height="1" fill="rgb(2,201,241)"/>
    <rect x="1" y="3" width="1" height="1" fill="rgb(1,181,228)"/>
    <rect x="2" y="3" width="1" height="1" fill="rgb(0,186,238)"/>
    <rect x="3" y="3" width="1" height="1" fill="rgb(0,180,232)"/>
    <rect x="4" y="3" width="1" height="1" fill="rgb(39,190,233)"/>
    <rect x="5" y="3" width="1" height="1" fill="rgb(103,203,234)"/>
    <rect x="6" y="3" width="1" height="1" fill="rgb(88,201,234)"/>
    <rect x="7" y="3" width="1" height="1" fill="rgb(103,206,236)"/>
    <rect x="8" y="3" width="1" height="1" fill="rgb(39,200,240)"/>
    <rect x="9" y="3" width="1" height="1" fill="rgb(0,197,243)"/>
    <rect x="10" y="3" width="1" height="1" fill="rgb(0,208,254)"/>
    <rect x="11" y="3" width="1" height="1" fill="rgb(1,198,240)"/>
    <rect x="1" y="4" width="1" height="1" fill="rgb(1,174,222)"/>
    <rect x="2" y="4" width="1" height="1" fill="rgb(0,178,232)"/>
    <rect x="3" y="4" width="1" height="1" fill="rgb(0,173,226)"/>
    <rect x="4" y="4" width="1" height="1" fill="rgb(49,184,226)"/>
    <rect x="5" y="4" width="1" height="1" fill="rgb(110,196,226)"/>
    <rect x="6" y="4" width="1" height="1" fill="rgb(92,192,226)"/>
    <rect x="7" y="4" width="1" height="1" fill="rgb(110,198,229)"/>
    <rect x="8" y="4" width="1" height="1" fill="rgb(49,192,233)"/>
    <rect x="9" y="4" width="1" height="1" fill="rgb(0,188,237)"/>
    <rect x="10" y="4" width="1" height="1" fill="rgb(0,198,247)"/>
    <rect x="11" y="4" width="1" height="1" fill="rgb(1,190,234)"/>
    <rect x="1" y="5" width="1" height="1" fill="rgb(1,168,219)"/>
    <rect x="2" y="5" width="1" height="1" fill="rgb(0,171,227)"/>
    <rect x="3" y="5" width="1" height="1" fill="rgb(0,165,221)"/>
    <rect x="4" y="5" width="1" height="1" fill="rgb(62,180,219)"/>
    <rect x="5" y="5" width="1" height="1" fill="rgb(120,191,216)"/>
    <rect x="6" y="5" width="1" height="1" fill="rgb(99,185,215)"/>
    <rect x="7" y="5" width="1" height="1" fill="rgb(120,192,219)"/>
    <rect x="8" y="5" width="1" height="1" fill="rgb(62,186,226)"/>
    <rect x="9" y="5" width="1" height="1" fill="rgb(0,178,230)"/>
    <rect x="10" y="5" width="1" height="1" fill="rgb(0,188,239)"/>
    <rect x="11" y="5" width="1" height="1" fill="rgb(1,181,228)"/>
    <rect x="1" y="6" width="1" height="1" fill="rgb(1,162,215)"/>
    <rect x="2" y="6" width="1" height="1" fill="rgb(0,164,222)"/>
    <rect x="3" y="6" width="1" height="1" fill="rgb(0,157,215)"/>
    <rect x="4" y="6" width="1" height="1" fill="rgb(75,180,217)"/>
    <rect x="5" y="6" width="1" height="1" fill="rgb(125,191,214)"/>
    <rect x="6" y="6" width="1" height="1" fill="rgb(103,183,211)"/>
    <rect x="7" y="6" width="1" height="1" fill="rgb(125,192,215)"/>
    <rect x="8" y="6" width="1" height="1" fill="rgb(75,184,220)"/>
    <rect x="9" y="6" width="1" height="1" fill="rgb(0,167,222)"/>
    <rect x="10" y="6" width="1" height="1" fill="rgb(0,177,232)"/>
    <rect x="11" y="6" width="1" height="1" fill="rgb(1,173,221)"/>
    <rect x="1" y="7" width="1" height="1" fill="rgb(1,157,210)"/>
    <rect x="2" y="7" width="1" height="1" fill="rgb(0,157,217)"/>
    <rect x="3" y="7" width="1" height="1" fill="rgb(0,149,210)"/>
    <rect x="4" y="7" width="1" height="1" fill="rgb(90,180,215)"/>
    <rect x="5" y="7" width="1" height="1" fill="rgb(158,201,218)"/>
    <rect x="6" y="7" width="1" height="1" fill="rgb(139,194,214)"/>
    <rect x="7" y="7" width="1" height="1" fill="rgb(158,202,219)"/>
    <rect x="8" y="7" width="1" height="1" fill="rgb(90,184,218)"/>
    <rect x="9" y="7" width="1" height="1" fill="rgb(0,156,215)"/>
    <rect x="10" y="7" width="1" height="1" fill="rgb(0,167,224)"/>
    <rect x="11" y="7" width="1" height="1" fill="rgb(1,165,216)"/>
    <rect x="1" y="8" width="1" height="1" fill="rgb(1,150,205)"/>
    <rect x="2" y="8" width="1" height="1" fill="rgb(0,150,212)"/>
    <rect x="3" y="8" width="1" height="1" fill="rgb(0,141,204)"/>
    <rect x="4" y="8" width="1" height="1" fill="rgb(103,181,213)"/>
    <rect x="5" y="8" width="1" height="1" fill="rgb(254,248,245)"/>
    <rect x="6" y="8" width="1" height="1" fill="rgb(242,242,242)"/>
    <rect x="7" y="8" width="1" height="1" fill="rgb(255,247,245)"/>
    <rect x="8" y="8" width="1" height="1" fill="rgb(103,183,215)"/>
    <rect x="9" y="8" width="1" height="1" fill="rgb(0,147,208)"/>
    <rect x="10" y="8" width="1" height="1" fill="rgb(0,157,217)"/>
    <rect x="11" y="8" width="1" height="1" fill="rgb(1,157,211)"/>
    <rect x="1" y="9" width="1" height="1" fill="rgb(1,147,203)"/>
    <rect x="2" y="9" width="1" height="1" fill="rgb(0,145,209)"/>
    <rect x="3" y="9" width="1" height="1" fill="rgb(0,137,201)"/>
    <rect x="4" y="9" width="1" height="1" fill="rgb(51,155,201)"/>
    <rect x="5" y="9" width="1" height="1" fill="rgb(232,237,239)"/>
    <rect x="6" y="9" width="1" height="1" fill="rgb(248,248,248)"/>
    <rect x="7" y="9" width="1" height="1" fill="rgb(232,237,239)"/>
    <rect x="8" y="9" width="1" height="1" fill="rgb(51,156,203)"/>
    <rect x="9" y="9" width="1" height="1" fill="rgb(0,141,204)"/>
    <rect x="10" y="9" width="1" height="1" fill="rgb(0,149,212)"/>
    <rect x="11" y="9" width="1" height="1" fill="rgb(1,150,204)"/>
    <rect x="1" y="10" width="1" height="1" fill="rgb(2,139,191)"/>
    <rect x="2" y="10" width="1" height="1" fill="rgb(1,150,214)"/>
    <rect x="3" y="10" width="1" height="1" fill="rgb(0,141,207)"/>
    <rect x="4" y="10" width="1" height="1" fill="rgb(0,134,202)"/>
    <rect x="5" y="10" width="1" height="1" fill="rgb(113,184,217)"/>
    <rect x="6" y="10" width="1" height="1" fill="rgb(255,255,255)"/>
    <rect x="7" y="10" width="1" height="1" fill="rgb(113,184,217)"/>
    <rect x="8" y="10" width="1" height="1" fill="rgb(0,135,203)"/>
    <rect x="9" y="10" width="1" height="1" fill="rgb(0,143,208)"/>
    <rect x="10" y="10" width="1" height="1" fill="rgb(1,151,215)"/>
    <rect x="11" y="10" width="1" height="1" fill="rgb(2,139,192)"/>
    <rect x="1" y="11" width="1" height="1" fill="rgb(0,72,109)"/>
    <rect x="2" y="11" width="1" height="1" fill="rgb(2,135,185)"/>
    <rect x="3" y="11" width="1" height="1" fill="rgb(1,140,195)"/>
    <rect x="4" y="11" width="1" height="1" fill="rgb(0,134,193)"/>
    <rect x="5" y="11" width="1" height="1" fill="rgb(77,161,195)"/>
    <rect x="6" y="11" width="1" height="1" fill="rgb(230,221,217)"/>
    <rect x="7" y="11" width="1" height="1" fill="rgb(77,161,195)"/>
    <rect x="8" y="11" width="1" height="1" fill="rgb(0,134,193)"/>
    <rect x="9" y="11" width="1" height="1" fill="rgb(1,140,195)"/>
    <rect x="10" y="11" width="1" height="1" fill="rgb(2,133,185)"/>
    <rect x="11" y="11" width="1" height="1" fill="rgb(0,72,109)"/>
    <rect x="5" y="12" width="1" height="1" fill="rgb(0,0,0)"/>
    <rect x="6" y="12" width="1" height="1" fill="rgb(0,0,0)"/>
    <rect x="7" y="12" width="1" height="1" fill="rgb(0,0,0)"/>
</svg>