<svg xmlns="http://www.w3.org/2000/svg" width="13" height="13" viewBox="0 0 13 13">
    <rect x="4" y="0" width="1" height="1" fill="rgb(0,63,255)"/>
    <rect x="5" y="0" width="1" height="1" fill="rgb(6,66,248)"/>
    <rect x="6" y="0" width="1" height="1" fill="rgb(4,69,255)"/>
    <rect x="7" y="0" width="1" height="1" fill="rgb(6,66,248)"/>
    <rect x="8" y="0" width="1" height="1" fill="rgb(0,63,255)"/>
    <rect x="3" y="1" width="1" height="1" fill="rgb(5,65,246)"/>
    <rect x="4" y="1" width="1" height="1" fill="rgb(5,67,252)"/>
    <rect x="5" y="1" width="1" height="1" fill="rgb(4,66,250)"/>
    <rect x="6" y="1" width="1" height="1" fill="rgb(5,66,250)"/>
    <rect x="7" y="1" width="1" height="1" fill="rgb(4,66,250)"/>
    <rect x="8" y="1" width="1" height="1" fill="rgb(5,67,252)"/>
    <rect x="9" y="1" width="1" height="1" fill="rgb(5,65,246)"/>
    <rect x="2" y="2" width="1" height="1" fill="rgb(3,63,240)"/>
    <rect x="3" y="2" width="1" height="1" fill="rgb(4,67,253)"/>
    <rect x="4" y="2" width="1" height="1" fill="rgb(4,67,253)"/>
    <rect x="5" y="2" width="1" height="1" fill="rgb(0,61,247)"/>
    <rect x="6" y="2" width="1" height="1" fill="rgb(0,58,246)"/>
    <rect x="7" y="2" width="1" height="1" fill="rgb(0,61,247)"/>
    <rect x="8" y="2" width="1" height="1" fill="rgb(4,67,253)"/>
    <rect x="9" y="2" width="1" height="1" fill="rgb(4,67,253)"/>
    <rect x="10" y="2" width="1" height="1" fill="rgb(3,63,240)"/>
    <rect x="1" y="3" width="1" height="1" fill="rgb(2,63,234)"/>
    <rect x="2" y="3" width="1" height="1" fill="rgb(4,66,248)"/>
    <rect x="3" y="3" width="1" height="1" fill="rgb(4,65,242)"/>
    <rect x="4" y="3" width="1" height="1" fill="rgb(0,60,239)"/>
    <rect x="5" y="3" width="1" height="1" fill="rgb(56,104,243)"/>
    <rect x="6" y="3" width="1" height="1" fill="rgb(104,140,247)"/>
    <rect x="7" y="3" width="1" height="1" fill="rgb(61,108,244)"/>
    <rect x="8" y="3" width="1" height="1" fill="rgb(1,61,239)"/>
    <rect x="9" y="3" width="1" height="1" fill="rgb(4,64,242)"/>
    <rect x="10" y="3" width="1" height="1" fill="rgb(4,66,248)"/>
    <rect x="11" y="3" width="1" height="1" fill="rgb(2,63,234)"/>
    <rect x="0" y="4" width="1" height="1" fill="rgb(0,36,218)"/>
    <rect x="1" y="4" width="1" height="1" fill="rgb(3,62,232)"/>
    <rect x="2" y="4" width="1" height="1" fill="rgb(4,65,241)"/>
    <rect x="3" y="4" width="1" height="1" fill="rgb(0,57,234)"/>
    <rect x="4" y="4" width="1" height="1" fill="rgb(97,134,242)"/>
    <rect x="5" y="4" width="1" height="1" fill="rgb(251,252,255)"/>
    <rect x="6" y="4" width="1" height="1" fill="rgb(255,255,255)"/>
    <rect x="7" y="4" width="1" height="1" fill="rgb(255,255,255)"/>
    <rect x="8" y="4" width="1" height="1" fill="rgb(112,146,244)"/>
    <rect x="9" y="4" width="1" height="1" fill="rgb(0,58,234)"/>
    <rect x="10" y="4" width="1" height="1" fill="rgb(4,65,241)"/>
    <rect x="11" y="4" width="1" height="1" fill="rgb(3,62,232)"/>
    <rect x="12" y="4" width="1" height="1" fill="rgb(0,36,218)"/>
    <rect x="0" y="5" width="1" height="1" fill="rgb(5,57,214)"/>
    <rect x="1" y="5" width="1" height="1" fill="rgb(4,61,228)"/>
    <rect x="2" y="5" width="1" height="1" fill="rgb(3,61,230)"/>
    <rect x="3" y="5" width="1" height="1" fill="rgb(9,65,229)"/>
    <rect x="4" y="5" width="1" height="1" fill="rgb(219,227,251)"/>
    <rect x="5" y="5" width="1" height="1" fill="rgb(222,230,251)"/>
    <rect x="6" y="5" width="1" height="1" fill="rgb(72,111,235)"/>
    <rect x="7" y="5" width="1" height="1" fill="rgb(200,214,249)"/>
    <rect x="8" y="5" width="1" height="1" fill="rgb(217,227,251)"/>
    <rect x="9" y="5" width="1" height="1" fill="rgb(14,70,230)"/>
    <rect x="10" y="5" width="1" height="1" fill="rgb(2,61,230)"/>
    <rect x="11" y="5" width="1" height="1" fill="rgb(4,61,228)"/>
    <rect x="12" y="5" width="1" height="1" fill="rgb(5,57,214)"/>
    <rect x="0" y="6" width="1" height="1" fill="rgb(3,55,211)"/>
    <rect x="1" y="6" width="1" height="1" fill="rgb(4,60,222)"/>
    <rect x="2" y="6" width="1" height="1" fill="rgb(2,60,224)"/>
    <rect x="3" y="6" width="1" height="1" fill="rgb(10,65,224)"/>
    <rect x="4" y="6" width="1" height="1" fill="rgb(224,231,251)"/>
    <rect x="5" y="6" width="1" height="1" fill="rgb(215,225,250)"/>
    <rect x="6" y="6" width="1" height="1" fill="rgb(44,90,229)"/>
    <rect x="7" y="6" width="1" height="1" fill="rgb(134,167,241)"/>
    <rect x="8" y="6" width="1" height="1" fill="rgb(161,188,244)"/>
    <rect x="9" y="6" width="1" height="1" fill="rgb(14,69,225)"/>
    <rect x="10" y="6" width="1" height="1" fill="rgb(2,60,224)"/>
    <rect x="11" y="6" width="1" height="1" fill="rgb(4,61,222)"/>
    <rect x="12" y="6" width="1" height="1" fill="rgb(3,55,211)"/>
    <rect x="0" y="7" width="1" height="1" fill="rgb(5,55,194)"/>
    <rect x="1" y="7" width="1" height="1" fill="rgb(4,58,216)"/>
    <rect x="2" y="7" width="1" height="1" fill="rgb(4,60,220)"/>
    <rect x="3" y="7" width="1" height="1" fill="rgb(0,53,217)"/>
    <rect x="4" y="7" width="1" height="1" fill="rgb(112,143,234)"/>
    <rect x="5" y="7" width="1" height="1" fill="rgb(255,255,255)"/>
    <rect x="6" y="7" width="1" height="1" fill="rgb(252,253,254)"/>
    <rect x="7" y="7" width="1" height="1" fill="rgb(150,181,241)"/>
    <rect x="8" y="7" width="1" height="1" fill="rgb(55,104,227)"/>
    <rect x="9" y="7" width="1" height="1" fill="rgb(1,57,218)"/>
    <rect x="10" y="7" width="1" height="1" fill="rgb(4,60,220)"/>
    <rect x="11" y="7" width="1" height="1" fill="rgb(4,58,216)"/>
    <rect x="12" y="7" width="1" height="1" fill="rgb(5,55,194)"/>
    <rect x="0" y="8" width="1" height="1" fill="rgb(0,31,159)"/>
    <rect x="1" y="8" width="1" height="1" fill="rgb(3,56,207)"/>
    <rect x="2" y="8" width="1" height="1" fill="rgb(4,60,219)"/>
    <rect x="3" y="8" width="1" height="1" fill="rgb(3,58,213)"/>
    <rect x="4" y="8" width="1" height="1" fill="rgb(0,53,212)"/>
    <rect x="5" y="8" width="1" height="1" fill="rgb(110,142,231)"/>
    <rect x="6" y="8" width="1" height="1" fill="rgb(255,255,255)"/>
    <rect x="7" y="8" width="1" height="1" fill="rgb(96,132,229)"/>
    <rect x="8" y="8" width="1" height="1" fill="rgb(0,51,212)"/>
    <rect x="9" y="8" width="1" height="1" fill="rgb(4,58,213)"/>
    <rect x="10" y="8" width="1" height="1" fill="rgb(4,60,219)"/>
    <rect x="11" y="8" width="1" height="1" fill="rgb(3,56,207)"/>
    <rect x="12" y="8" width="1" height="1" fill="rgb(0,31,159)"/>
    <rect x="1" y="9" width="1" height="1" fill="rgb(2,51,190)"/>
    <rect x="2" y="9" width="1" height="1" fill="rgb(4,59,214)"/>
    <rect x="3" y="9" width="1" height="1" fill="rgb(4,58,209)"/>
    <rect x="4" y="9" width="1" height="1" fill="rgb(0,52,207)"/>
    <rect x="5" y="9" width="1" height="1" fill="rgb(46,90,216)"/>
    <rect x="6" y="9" width="1" height="1" fill="rgb(201,212,244)"/>
    <rect x="7" y="9" width="1" height="1" fill="rgb(61,102,218)"/>
    <rect x="8" y="9" width="1" height="1" fill="rgb(1,51,206)"/>
    <rect x="9" y="9" width="1" height="1" fill="rgb(4,57,209)"/>
    <rect x="10" y="9" width="1" height="1" fill="rgb(4,59,214)"/>
    <rect x="11" y="9" width="1" height="1" fill="rgb(2,51,190)"/>
    <rect x="1" y="10" width="1" height="1" fill="rgb(0,0,0)"/>
    <rect x="2" y="10" width="1" height="1" fill="rgb(3,51,188)"/>
    <rect x="3" y="10" width="1" height="1" fill="rgb(4,57,209)"/>
    <rect x="4" y="10" width="1" height="1" fill="rgb(3,57,208)"/>
    <rect x="5" y="10" width="1" height="1" fill="rgb(3,56,204)"/>
    <rect x="6" y="10" width="1" height="1" fill="rgb(3,55,203)"/>
    <rect x="7" y="10" width="1" height="1" fill="rgb(3,56,204)"/>
    <rect x="8" y="10" width="1" height="1" fill="rgb(3,57,208)"/>
    <rect x="9" y="10" width="1" height="1" fill="rgb(4,57,209)"/>
    <rect x="10" y="10" width="1" height="1" fill="rgb(3,52,188)"/>
    <rect x="11" y="10" width="1" height="1" fill="rgb(0,0,0)"/>
    <rect x="2" y="11" width="1" height="1" fill="rgb(0,0,0)"/>
    <rect x="3" y="11" width="1" height="1" fill="rgb(2,48,177)"/>
    <rect x="4" y="11" width="1" height="1" fill="rgb(2,54,193)"/>
    <rect x="5" y="11" width="1" height="1" fill="rgb(3,54,196)"/>
    <rect x="6" y="11" width="1" height="1" fill="rgb(2,54,196)"/>
    <rect x="7" y="11" width="1" height="1" fill="rgb(3,54,196)"/>
    <rect x="8" y="11" width="1" height="1" fill="rgb(2,54,193)"/>
    <rect x="9" y="11" width="1" height="1" fill="rgb(2,48,177)"/>
    <rect x="10" y="11" width="1" height="1" fill="rgb(0,0,0)"/>
    <rect x="4" y="12" width="1" height="1" fill="rgb(0,25,76)"/>
    <rect x="5" y="12" width="1" height="1" fill="rgb(0,44,156)"/>
    <rect x="6" y="12" width="1" height="1" fill="rgb(3,46,165)"/>
    <rect x="7" y="12" width="1" height="1" fill="rgb(0,44,156)"/>
    <rect x="8" y="12" width="1" height="1" fill="rgb(0,25,76)"/>
</svg>