<svg xmlns="http://www.w3.org/2000/svg" width="13" height="13" viewBox="0 0 13 13">
    <rect x="1" y="1" width="1" height="1" fill="rgb(255,255,255)"/>
    <rect x="2" y="1" width="1" height="1" fill="rgb(255,255,255)"/>
    <rect x="3" y="1" width="1" height="1" fill="rgb(253,253,253)"/>
    <rect x="4" y="1" width="1" height="1" fill="rgb(255,255,255)"/>
    <rect x="5" y="1" width="1" height="1" fill="rgb(255,255,255)"/>
    <rect x="6" y="1" width="1" height="1" fill="rgb(255,255,255)"/>
    <rect x="7" y="1" width="1" height="1" fill="rgb(255,255,255)"/>
    <rect x="8" y="1" width="1" height="1" fill="rgb(255,255,255)"/>
    <rect x="9" y="1" width="1" height="1" fill="rgb(255,255,255)"/>
    <rect x="10" y="1" width="1" height="1" fill="rgb(255,255,255)"/>
    <rect x="11" y="1" width="1" height="1" fill="rgb(255,255,255)"/>
    <rect x="0" y="2" width="1" height="1" fill="rgb(218,218,218)"/>
    <rect x="1" y="2" width="1" height="1" fill="rgb(244,244,244)"/>
    <rect x="2" y="2" width="1" height="1" fill="rgb(255,255,255)"/>
    <rect x="3" y="2" width="1" height="1" fill="rgb(255,255,255)"/>
    <rect x="4" y="2" width="1" height="1" fill="rgb(255,255,255)"/>
    <rect x="5" y="2" width="1" height="1" fill="rgb(255,255,255)"/>
    <rect x="6" y="2" width="1" height="1" fill="rgb(255,255,255)"/>
    <rect x="7" y="2" width="1" height="1" fill="rgb(255,255,255)"/>
    <rect x="8" y="2" width="1" height="1" fill="rgb(255,255,255)"/>
    <rect x="9" y="2" width="1" height="1" fill="rgb(255,255,255)"/>
    <rect x="10" y="2" width="1" height="1" fill="rgb(255,255,255)"/>
    <rect x="11" y="2" width="1" height="1" fill="rgb(250,250,250)"/>
    <rect x="0" y="3" width="1" height="1" fill="rgb(229,229,229)"/>
    <rect x="1" y="3" width="1" height="1" fill="rgb(254,254,254)"/>
    <rect x="2" y="3" width="1" height="1" fill="rgb(255,255,255)"/>
    <rect x="3" y="3" width="1" height="1" fill="rgb(249,249,249)"/>
    <rect x="4" y="3" width="1" height="1" fill="rgb(187,187,187)"/>
    <rect x="5" y="3" width="1" height="1" fill="rgb(182,182,182)"/>
    <rect x="6" y="3" width="1" height="1" fill="rgb(183,183,183)"/>
    <rect x="7" y="3" width="1" height="1" fill="rgb(182,182,182)"/>
    <rect x="8" y="3" width="1" height="1" fill="rgb(187,187,187)"/>
    <rect x="9" y="3" width="1" height="1" fill="rgb(249,249,249)"/>
    <rect x="10" y="3" width="1" height="1" fill="rgb(255,255,255)"/>
    <rect x="11" y="3" width="1" height="1" fill="rgb(252,252,252)"/>
    <rect x="0" y="4" width="1" height="1" fill="rgb(229,229,229)"/>
    <rect x="1" y="4" width="1" height="1" fill="rgb(253,253,253)"/>
    <rect x="2" y="4" width="1" height="1" fill="rgb(255,255,255)"/>
    <rect x="3" y="4" width="1" height="1" fill="rgb(231,231,231)"/>
    <rect x="4" y="4" width="1" height="1" fill="rgb(126,126,126)"/>
    <rect x="5" y="4" width="1" height="1" fill="rgb(190,190,190)"/>
    <rect x="6" y="4" width="1" height="1" fill="rgb(73,73,73)"/>
    <rect x="7" y="4" width="1" height="1" fill="rgb(190,190,190)"/>
    <rect x="8" y="4" width="1" height="1" fill="rgb(127,127,127)"/>
    <rect x="9" y="4" width="1" height="1" fill="rgb(231,231,231)"/>
    <rect x="10" y="4" width="1" height="1" fill="rgb(255,255,255)"/>
    <rect x="11" y="4" width="1" height="1" fill="rgb(250,250,250)"/>
    <rect x="0" y="5" width="1" height="1" fill="rgb(228,228,228)"/>
    <rect x="1" y="5" width="1" height="1" fill="rgb(250,250,250)"/>
    <rect x="2" y="5" width="1" height="1" fill="rgb(252,252,252)"/>
    <rect x="3" y="5" width="1" height="1" fill="rgb(243,243,243)"/>
    <rect x="4" y="5" width="1" height="1" fill="rgb(241,241,241)"/>
    <rect x="5" y="5" width="1" height="1" fill="rgb(241,241,241)"/>
    <rect x="6" y="5" width="1" height="1" fill="rgb(87,87,87)"/>
    <rect x="7" y="5" width="1" height="1" fill="rgb(240,240,240)"/>
    <rect x="8" y="5" width="1" height="1" fill="rgb(241,241,241)"/>
    <rect x="9" y="5" width="1" height="1" fill="rgb(243,243,243)"/>
    <rect x="10" y="5" width="1" height="1" fill="rgb(255,255,255)"/>
    <rect x="11" y="5" width="1" height="1" fill="rgb(249,249,249)"/>
    <rect x="0" y="6" width="1" height="1" fill="rgb(222,222,222)"/>
    <rect x="1" y="6" width="1" height="1" fill="rgb(245,245,245)"/>
    <rect x="2" y="6" width="1" height="1" fill="rgb(251,251,251)"/>
    <rect x="3" y="6" width="1" height="1" fill="rgb(246,246,246)"/>
    <rect x="4" y="6" width="1" height="1" fill="rgb(249,249,249)"/>
    <rect x="5" y="6" width="1" height="1" fill="rgb(232,232,232)"/>
    <rect x="6" y="6" width="1" height="1" fill="rgb(86,86,86)"/>
    <rect x="7" y="6" width="1" height="1" fill="rgb(232,232,232)"/>
    <rect x="8" y="6" width="1" height="1" fill="rgb(249,249,249)"/>
    <rect x="9" y="6" width="1" height="1" fill="rgb(246,246,246)"/>
    <rect x="10" y="6" width="1" height="1" fill="rgb(255,255,255)"/>
    <rect x="11" y="6" width="1" height="1" fill="rgb(248,248,248)"/>
    <rect x="0" y="7" width="1" height="1" fill="rgb(217,217,217)"/>
    <rect x="1" y="7" width="1" height="1" fill="rgb(241,241,241)"/>
    <rect x="2" y="7" width="1" height="1" fill="rgb(251,251,251)"/>
    <rect x="3" y="7" width="1" height="1" fill="rgb(244,244,244)"/>
    <rect x="4" y="7" width="1" height="1" fill="rgb(246,246,246)"/>
    <rect x="5" y="7" width="1" height="1" fill="rgb(233,233,233)"/>
    <rect x="6" y="7" width="1" height="1" fill="rgb(88,88,88)"/>
    <rect x="7" y="7" width="1" height="1" fill="rgb(233,233,233)"/>
    <rect x="8" y="7" width="1" height="1" fill="rgb(246,246,246)"/>
    <rect x="9" y="7" width="1" height="1" fill="rgb(244,244,244)"/>
    <rect x="10" y="7" width="1" height="1" fill="rgb(255,255,255)"/>
    <rect x="11" y="7" width="1" height="1" fill="rgb(246,246,246)"/>
    <rect x="0" y="8" width="1" height="1" fill="rgb(208,208,208)"/>
    <rect x="1" y="8" width="1" height="1" fill="rgb(241,241,241)"/>
    <rect x="2" y="8" width="1" height="1" fill="rgb(250,250,250)"/>
    <rect x="3" y="8" width="1" height="1" fill="rgb(243,243,243)"/>
    <rect x="4" y="8" width="1" height="1" fill="rgb(247,247,247)"/>
    <rect x="5" y="8" width="1" height="1" fill="rgb(208,208,208)"/>
    <rect x="6" y="8" width="1" height="1" fill="rgb(65,65,65)"/>
    <rect x="7" y="8" width="1" height="1" fill="rgb(208,208,208)"/>
    <rect x="8" y="8" width="1" height="1" fill="rgb(247,247,247)"/>
    <rect x="9" y="8" width="1" height="1" fill="rgb(243,243,243)"/>
    <rect x="10" y="8" width="1" height="1" fill="rgb(255,255,255)"/>
    <rect x="11" y="8" width="1" height="1" fill="rgb(245,245,245)"/>
    <rect x="0" y="9" width="1" height="1" fill="rgb(175,175,175)"/>
    <rect x="1" y="9" width="1" height="1" fill="rgb(238,238,238)"/>
    <rect x="2" y="9" width="1" height="1" fill="rgb(251,251,251)"/>
    <rect x="3" y="9" width="1" height="1" fill="rgb(244,244,244)"/>
    <rect x="4" y="9" width="1" height="1" fill="rgb(247,247,247)"/>
    <rect x="5" y="9" width="1" height="1" fill="rgb(199,199,199)"/>
    <rect x="6" y="9" width="1" height="1" fill="rgb(156,156,156)"/>
    <rect x="7" y="9" width="1" height="1" fill="rgb(199,199,199)"/>
    <rect x="8" y="9" width="1" height="1" fill="rgb(247,247,247)"/>
    <rect x="9" y="9" width="1" height="1" fill="rgb(244,244,244)"/>
    <rect x="10" y="9" width="1" height="1" fill="rgb(255,255,255)"/>
    <rect x="11" y="9" width="1" height="1" fill="rgb(243,243,243)"/>
    <rect x="0" y="10" width="1" height="1" fill="rgb(127,127,127)"/>
    <rect x="1" y="10" width="1" height="1" fill="rgb(226,226,226)"/>
    <rect x="2" y="10" width="1" height="1" fill="rgb(254,254,254)"/>
    <rect x="3" y="10" width="1" height="1" fill="rgb(247,247,247)"/>
    <rect x="4" y="10" width="1" height="1" fill="rgb(247,247,247)"/>
    <rect x="5" y="10" width="1" height="1" fill="rgb(252,252,252)"/>
    <rect x="6" y="10" width="1" height="1" fill="rgb(255,255,255)"/>
    <rect x="7" y="10" width="1" height="1" fill="rgb(254,254,254)"/>
    <rect x="8" y="10" width="1" height="1" fill="rgb(252,252,252)"/>
    <rect x="9" y="10" width="1" height="1" fill="rgb(255,255,255)"/>
    <rect x="10" y="10" width="1" height="1" fill="rgb(255,255,255)"/>
    <rect x="11" y="10" width="1" height="1" fill="rgb(233,233,233)"/>
    <rect x="1" y="11" width="1" height="1" fill="rgb(212,212,212)"/>
    <rect x="2" y="11" width="1" height="1" fill="rgb(228,228,228)"/>
    <rect x="3" y="11" width="1" height="1" fill="rgb(237,237,237)"/>
    <rect x="4" y="11" width="1" height="1" fill="rgb(233,233,233)"/>
    <rect x="5" y="11" width="1" height="1" fill="rgb(229,229,229)"/>
    <rect x="6" y="11" width="1" height="1" fill="rgb(227,227,227)"/>
    <rect x="7" y="11" width="1" height="1" fill="rgb(226,226,226)"/>
    <rect x="8" y="11" width="1" height="1" fill="rgb(226,226,226)"/>
    <rect x="9" y="11" width="1" height="1" fill="rgb(230,230,230)"/>
    <rect x="10" y="11" width="1" height="1" fill="rgb(219,219,219)"/>
    <rect x="11" y="11" width="1" height="1" fill="rgb(153,153,153)"/>
    <rect x="2" y="12" width="1" height="1" fill="rgb(193,193,193)"/>
    <rect x="3" y="12" width="1" height="1" fill="rgb(205,205,205)"/>
    <rect x="4" y="12" width="1" height="1" fill="rgb(192,192,192)"/>
    <rect x="5" y="12" width="1" height="1" fill="rgb(179,179,179)"/>
    <rect x="6" y="12" width="1" height="1" fill="rgb(157,157,157)"/>
    <rect x="7" y="12" width="1" height="1" fill="rgb(116,116,116)"/>
    <rect x="8" y="12" width="1" height="1" fill="rgb(25,25,25)"/>
</svg>